<?xml version="1.0" encoding="UTF-8"?>
<!DOCTYPE svg PUBLIC "-//W3C//DTD SVG 1.1//EN" "http://www.w3.org/Graphics/SVG/1.1/DTD/svg11.dtd">
<svg xmlns="http://www.w3.org/2000/svg" version="1.1" width="1024px" height="1024px" style="shape-rendering:geometricPrecision; text-rendering:geometricPrecision; image-rendering:optimizeQuality; fill-rule:evenodd; clip-rule:evenodd" xmlns:xlink="http://www.w3.org/1999/xlink">
<g><path style="opacity:1" fill="#fbfcfb" d="M -0.5,-0.5 C 340.833,-0.5 682.167,-0.5 1023.5,-0.5C 1023.5,187.167 1023.5,374.833 1023.5,562.5C 1018.7,550.225 1013.87,537.892 1009,525.5C 1005.17,519 1000,513.833 993.5,510C 981.59,506.525 971.423,509.358 963,518.5C 959.65,523.672 955.817,528.338 951.5,532.5C 950.833,527.167 950.167,521.833 949.5,516.5C 950.327,509.202 948.994,502.369 945.5,496C 936.705,489.424 927.539,488.924 918,494.5C 918.102,525.178 919.102,555.845 921,586.5C 922.065,589.152 923.898,590.985 926.5,592C 932.964,593.652 938.464,592.152 943,587.5C 948.767,575.196 955.101,563.196 962,551.5C 965.581,546.672 968.915,541.672 972,536.5C 974.382,533.781 977.049,531.447 980,529.5C 982.321,530.487 983.987,532.154 985,534.5C 987.063,556.793 996.23,575.626 1012.5,591C 1016.06,592.237 1019.73,592.737 1023.5,592.5C 1023.5,730.833 1023.5,869.167 1023.5,1007.5C 1018.17,1007.5 1012.83,1007.5 1007.5,1007.5C 1002.17,1007.5 996.833,1007.5 991.5,1007.5C 986.167,1007.5 980.833,1007.5 975.5,1007.5C 970.167,1007.5 964.833,1007.5 959.5,1007.5C 954.167,1007.5 948.833,1007.5 943.5,1007.5C 943.5,1012.83 943.5,1018.17 943.5,1023.5C 628.833,1023.5 314.167,1023.5 -0.5,1023.5C -0.5,682.167 -0.5,340.833 -0.5,-0.5 Z"/></g>
<g><path style="opacity:1" fill="#2b1e2a" d="M 496.5,408.5 C 491.678,407.834 486.678,407.501 481.5,407.5C 472.624,407.412 463.957,408.078 455.5,409.5C 447.304,410.259 439.637,412.759 432.5,417C 415.316,434.584 408.149,455.751 411,480.5C 411.186,482.9 411.686,485.234 412.5,487.5C 434.37,484.015 456.203,480.348 478,476.5C 484.519,480.335 488.685,485.835 490.5,493C 490.391,496.738 488.557,498.905 485,499.5C 474.138,495.796 462.971,494.63 451.5,496C 440.518,498.592 429.684,501.425 419,504.5C 423.046,530.462 425.546,556.629 426.5,583C 428.073,610.756 421.907,636.589 408,660.5C 405.5,663.667 403,666.833 400.5,670C 395.931,673.463 390.931,675.63 385.5,676.5C 379.972,676.652 375.806,674.318 373,669.5C 369.586,659.806 368.586,649.806 370,639.5C 374.181,606.141 378.514,572.808 383,539.5C 383.413,530.822 383.913,522.156 384.5,513.5C 378.169,514.669 371.836,516.169 365.5,518C 356.521,520.735 347.855,524.068 339.5,528C 326.739,530.923 319.906,525.757 319,512.5C 316.585,509.968 315.919,506.968 317,503.5C 318.067,502.809 319.234,502.309 320.5,502C 328.833,501.667 337.167,501.333 345.5,501C 355.812,498.668 366.146,496.335 376.5,494C 380.152,493.501 383.818,493.335 387.5,493.5C 387.776,476.608 389.609,459.941 393,443.5C 396.072,438.149 398.406,432.482 400,426.5C 402.796,423.239 404.796,419.573 406,415.5C 410.167,411.333 414.333,407.167 418.5,403C 425.393,399.386 432.393,396.053 439.5,393C 463.365,386.171 487.699,384.004 512.5,386.5C 534.603,389.368 556.27,394.201 577.5,401C 582.71,402.211 584.544,405.377 583,410.5C 580.938,412.901 579.271,415.567 578,418.5C 577.511,421.982 576.345,425.149 574.5,428C 571.735,429.129 569.235,430.629 567,432.5C 545.63,418.195 522.13,410.195 496.5,408.5 Z"/></g>
<g><path style="opacity:1" fill="#ac1965" d="M 226.5,393.5 C 236.878,393.196 247.211,393.696 257.5,395C 290.575,407.069 305.075,430.569 301,465.5C 296.829,481.629 290.829,496.962 283,511.5C 273.833,535.779 264.5,560.112 255,584.5C 250.794,594.414 244.96,603.248 237.5,611C 214.625,626.963 192.291,626.296 170.5,609C 141.717,580.877 112.383,553.543 82.5,527C 79.0349,522.533 75.2016,518.367 71,514.5C 59.1436,498.944 54.4769,481.278 57,461.5C 64.6435,435.858 81.4769,419.691 107.5,413C 122.592,410.806 136.592,413.806 149.5,422C 159.322,429.328 168.656,437.162 177.5,445.5C 181.785,426.732 191.785,411.899 207.5,401C 213.904,398.372 220.238,395.872 226.5,393.5 Z"/></g>
<g><path style="opacity:1" fill="#291c28" d="M 712.5,535.5 C 713.816,529.987 713.816,524.32 712.5,518.5C 711.893,518.624 711.56,518.957 711.5,519.5C 703.344,523.48 696.844,529.48 692,537.5C 686.425,561.493 683.759,585.826 684,610.5C 682.833,611.667 681.667,612.833 680.5,614C 677.064,614.692 673.73,615.692 670.5,617C 665.154,618.652 660.987,617.152 658,612.5C 657.5,603.506 657.334,594.506 657.5,585.5C 658.82,577.99 658.82,570.323 657.5,562.5C 656.893,562.624 656.56,562.957 656.5,563.5C 651.899,564.683 647.232,565.683 642.5,566.5C 642.082,575.36 640.582,584.027 638,592.5C 627.522,607.822 613.689,618.989 596.5,626C 592.044,626.867 587.711,626.534 583.5,625C 574.457,617.277 569.957,607.444 570,595.5C 560.969,594.069 552.802,590.569 545.5,585C 539.477,576.836 534.143,568.336 529.5,559.5C 524.781,566.38 520.281,573.38 516,580.5C 512.133,584.702 507.967,588.535 503.5,592C 496.901,593.496 490.234,593.829 483.5,593C 480.751,590.577 477.751,588.577 474.5,587C 469.384,582.341 466.551,576.508 466,569.5C 464.574,558.817 465.574,548.483 469,538.5C 475.328,521.516 485.495,507.35 499.5,496C 511.134,487.441 522.634,487.608 534,496.5C 538.325,502.885 539.492,509.885 537.5,517.5C 542.064,517.55 545.564,519.55 548,523.5C 553.337,538.178 558.67,552.844 564,567.5C 565.833,570.5 567.667,573.5 569.5,576.5C 570.5,576.833 571.5,577.167 572.5,577.5C 584.088,573.45 595.422,568.616 606.5,563C 608.666,561.998 610.333,560.498 611.5,558.5C 610.242,555.4 608.742,552.4 607,549.5C 597.723,539.552 588.389,529.552 579,519.5C 566.036,506.015 567.87,495.181 584.5,487C 600.111,482.608 615.778,482.608 631.5,487C 639.079,496.209 637.745,503.875 627.5,510C 624.5,510.667 621.5,510.667 618.5,510C 615.543,505.686 614.043,500.853 614,495.5C 607.307,493.46 601.973,495.46 598,501.5C 597.202,503.259 597.369,504.926 598.5,506.5C 605.784,515.286 613.617,523.619 622,531.5C 626.621,537.243 631.121,543.076 635.5,549C 640.795,547.57 646.129,545.904 651.5,544C 654.412,542.627 657.246,541.127 660,539.5C 663.611,475.787 668.278,412.12 674,348.5C 675.214,346.951 676.714,345.785 678.5,345C 685.541,344.336 692.541,344.669 699.5,346C 705.79,348.812 711.79,352.145 717.5,356C 721.761,359.105 723.428,363.271 722.5,368.5C 714.86,409.15 707.36,449.817 700,490.5C 697.498,493.511 696.998,496.845 698.5,500.5C 702.802,498.349 707.136,496.182 711.5,494C 721.691,491.305 730.191,493.805 737,501.5C 739.043,507.378 740.71,513.378 742,519.5C 742.858,533.036 744.858,546.369 748,559.5C 751.46,567.265 755.294,574.765 759.5,582C 755.105,591.457 747.771,594.624 737.5,591.5C 729.341,588.51 723.174,583.177 719,575.5C 714.129,562.716 711.962,549.383 712.5,535.5 Z"/></g>
<g><path style="opacity:1" fill="#979198" d="M 496.5,408.5 C 482.821,408.443 469.154,408.776 455.5,409.5C 463.957,408.078 472.624,407.412 481.5,407.5C 486.678,407.501 491.678,407.834 496.5,408.5 Z"/></g>
<g><path style="opacity:1" fill="#2c1f2a" d="M 763.5,416.5 C 780.105,415.272 787.938,422.938 787,439.5C 781.938,450.492 773.438,454.325 761.5,451C 747.684,440.948 747.017,429.948 759.5,418C 761.058,417.79 762.391,417.29 763.5,416.5 Z"/></g>
<g><path style="opacity:1" fill="#281a26" d="M 234.5,426.5 C 248.447,426.89 259.28,432.89 267,444.5C 267.667,448.5 267.667,452.5 267,456.5C 249.078,501.006 230.078,545.006 210,588.5C 205.106,586.073 200.273,583.573 195.5,581C 163.684,551.521 131.517,522.354 99,493.5C 90.8928,482.667 89.5594,471 95,458.5C 103.315,449.794 113.481,446.627 125.5,449C 133.636,453.575 140.97,459.242 147.5,466C 161.745,476.241 175.412,487.241 188.5,499C 191.318,499.84 193.484,499.006 195,496.5C 201.542,477.059 209.542,458.059 219,439.5C 221.167,436.667 223.333,433.833 225.5,431C 228.861,430.12 231.861,428.62 234.5,426.5 Z"/></g>
<g><path style="opacity:1" fill="#2b1e29" d="M 756.5,489.5 C 763.222,489.29 769.888,489.79 776.5,491C 781.414,493.659 783.581,497.826 783,503.5C 782.916,523.331 784.583,542.997 788,562.5C 789.049,566.379 790.549,570.046 792.5,573.5C 794.401,574.231 796.401,574.231 798.5,573.5C 789.21,549.344 792.377,527.01 808,506.5C 811.534,502.631 815.367,499.131 819.5,496C 827.972,493.356 836.639,491.522 845.5,490.5C 870.786,492.728 891.952,503.061 909,521.5C 916.506,534.074 916.172,546.407 908,558.5C 891.534,576.152 871.367,587.152 847.5,591.5C 837.68,593.115 828.014,592.615 818.5,590C 814.234,587.619 810.068,585.119 806,582.5C 801.514,586.639 796.681,590.472 791.5,594C 780.281,596.594 771.114,593.428 764,584.5C 761.815,579.468 759.648,574.468 757.5,569.5C 756.5,569.5 755.5,569.5 754.5,569.5C 752.934,544.187 752.434,518.854 753,493.5C 754.376,492.295 755.542,490.962 756.5,489.5 Z"/></g>
<g><path style="opacity:1" fill="#291d27" d="M 949.5,516.5 C 949.171,522.206 949.505,527.872 950.5,533.5C 951.107,533.376 951.44,533.043 951.5,532.5C 955.817,528.338 959.65,523.672 963,518.5C 971.423,509.358 981.59,506.525 993.5,510C 1000,513.833 1005.17,519 1009,525.5C 1013.87,537.892 1018.7,550.225 1023.5,562.5C 1023.5,572.5 1023.5,582.5 1023.5,592.5C 1019.73,592.737 1016.06,592.237 1012.5,591C 996.23,575.626 987.063,556.793 985,534.5C 983.987,532.154 982.321,530.487 980,529.5C 977.049,531.447 974.382,533.781 972,536.5C 968.915,541.672 965.581,546.672 962,551.5C 955.101,563.196 948.767,575.196 943,587.5C 938.464,592.152 932.964,593.652 926.5,592C 923.898,590.985 922.065,589.152 921,586.5C 919.102,555.845 918.102,525.178 918,494.5C 927.539,488.924 936.705,489.424 945.5,496C 948.994,502.369 950.327,509.202 949.5,516.5 Z"/></g>
<g><path style="opacity:1" fill="#f3f3f2" d="M 522.5,511.5 C 526.182,511.335 529.848,511.501 533.5,512C 534.5,513 535.5,514 536.5,515C 534.423,515.192 532.423,515.692 530.5,516.5C 521.989,537.189 510.656,556.189 496.5,573.5C 495.335,562.489 496.835,551.823 501,541.5C 503.196,536.58 505.196,531.58 507,526.5C 510.316,522.854 513.982,519.521 518,516.5C 518.483,515.552 518.649,514.552 518.5,513.5C 520.38,513.771 521.713,513.104 522.5,511.5 Z"/></g>
<g><path style="opacity:1" fill="#f8f8f8" d="M 830.5,515.5 C 838.765,522.918 847.765,529.418 857.5,535C 861.52,538.011 864.353,541.844 866,546.5C 865.167,567.33 854.334,576.83 833.5,575C 827.715,570.878 823.882,565.378 822,558.5C 820.739,546.21 822.073,534.21 826,522.5C 827.511,520.138 829.011,517.805 830.5,515.5 Z"/></g>
<g><path style="opacity:1" fill="#776f77" d="M 711.5,519.5 C 711.56,518.957 711.893,518.624 712.5,518.5C 713.816,524.32 713.816,529.987 712.5,535.5C 712.821,529.974 712.488,524.64 711.5,519.5 Z"/></g>
<g><path style="opacity:1" fill="#857e84" d="M 949.5,516.5 C 950.167,521.833 950.833,527.167 951.5,532.5C 951.44,533.043 951.107,533.376 950.5,533.5C 949.505,527.872 949.171,522.206 949.5,516.5 Z"/></g>
<g><path style="opacity:1" fill="#efeeef" d="M 886.5,540.5 C 889.226,540.264 891.559,541.097 893.5,543C 895.211,544.133 895.711,545.633 895,547.5C 890.079,555.39 883.246,561.056 874.5,564.5C 873.417,563.635 873.251,562.635 874,561.5C 878.706,554.743 882.873,547.743 886.5,540.5 Z"/></g>
<g><path style="opacity:1" fill="#e9e8e8" d="M 399.5,533.5 C 400.117,533.611 400.617,533.944 401,534.5C 404.299,562.162 404.299,589.829 401,617.5C 398.52,629.285 394.187,640.285 388,650.5C 392.08,611.527 395.913,572.527 399.5,533.5 Z"/></g>
<g><path style="opacity:1" fill="#827d83" d="M 656.5,563.5 C 656.56,562.957 656.893,562.624 657.5,562.5C 658.82,570.323 658.82,577.99 657.5,585.5C 657.825,577.981 657.492,570.648 656.5,563.5 Z"/></g>
<g><path style="opacity:1" fill="#feff65" d="M 959.5,1007.5 C 959.5,1012.83 959.5,1018.17 959.5,1023.5C 954.167,1023.5 948.833,1023.5 943.5,1023.5C 943.5,1018.17 943.5,1012.83 943.5,1007.5C 948.833,1007.5 954.167,1007.5 959.5,1007.5 Z"/></g>
<g><path style="opacity:1" fill="#42fffe" d="M 959.5,1007.5 C 964.833,1007.5 970.167,1007.5 975.5,1007.5C 975.5,1012.83 975.5,1018.17 975.5,1023.5C 970.167,1023.5 964.833,1023.5 959.5,1023.5C 959.5,1018.17 959.5,1012.83 959.5,1007.5 Z"/></g>
<g><path style="opacity:1" fill="#51da4b" d="M 975.5,1007.5 C 980.833,1007.5 986.167,1007.5 991.5,1007.5C 991.5,1012.83 991.5,1018.17 991.5,1023.5C 986.167,1023.5 980.833,1023.5 975.5,1023.5C 975.5,1018.17 975.5,1012.83 975.5,1007.5 Z"/></g>
<g><path style="opacity:1" fill="#fe6e3b" d="M 991.5,1007.5 C 996.833,1007.5 1002.17,1007.5 1007.5,1007.5C 1007.5,1012.83 1007.5,1018.17 1007.5,1023.5C 1002.17,1023.5 996.833,1023.5 991.5,1023.5C 991.5,1018.17 991.5,1012.83 991.5,1007.5 Z"/></g>
<g><path style="opacity:1" fill="#3c45ff" d="M 1007.5,1007.5 C 1012.83,1007.5 1018.17,1007.5 1023.5,1007.5C 1023.5,1012.83 1023.5,1018.17 1023.5,1023.5C 1018.17,1023.5 1012.83,1023.5 1007.5,1023.5C 1007.5,1018.17 1007.5,1012.83 1007.5,1007.5 Z"/></g>
</svg>
