<?xml version="1.0" encoding="UTF-8"?>
<!DOCTYPE svg PUBLIC "-//W3C//DTD SVG 1.1//EN" "http://www.w3.org/Graphics/SVG/1.1/DTD/svg11.dtd">
<svg xmlns="http://www.w3.org/2000/svg" version="1.1" width="512px" height="512px" style="shape-rendering:geometricPrecision; text-rendering:geometricPrecision; image-rendering:optimizeQuality; fill-rule:evenodd; clip-rule:evenodd" xmlns:xlink="http://www.w3.org/1999/xlink">
<g><path style="opacity:0.962" fill="#000000" d="M 242.5,32.5 C 285.521,28.9193 316.688,46.2526 336,84.5C 350.932,127.019 341.098,162.519 306.5,191C 279.404,208.201 250.737,211.201 220.5,200C 179.945,179.058 163.111,145.891 170,100.5C 180.533,63.1297 204.699,40.463 242.5,32.5 Z M 245.5,63.5 C 279.929,61.1192 301.763,76.4525 311,109.5C 313.128,148.875 294.628,171.208 255.5,176.5C 216.372,171.208 197.872,148.875 200,109.5C 206.015,84.9859 221.181,69.6525 245.5,63.5 Z"/></g>
<g><path style="opacity:0.963" fill="#000000" d="M 68.5,96.5 C 102.629,93.1625 124.462,107.829 134,140.5C 137.628,169.417 126.462,190.251 100.5,203C 67.8122,212.732 43.6455,202.565 28,172.5C 18.268,139.812 28.4347,115.645 58.5,100C 61.98,98.8974 65.3133,97.7308 68.5,96.5 Z M 72.5,127.5 C 94.6458,126.145 104.812,136.479 103,158.5C 94.5524,175.967 81.7191,180.134 64.5,171C 54.2968,160.69 52.7968,149.19 60,136.5C 63.6164,132.62 67.783,129.62 72.5,127.5 Z"/></g>
<g><path style="opacity:0.963" fill="#000000" d="M 420.5,96.5 C 454.629,93.1625 476.462,107.829 486,140.5C 489.628,169.417 478.462,190.251 452.5,203C 419.812,212.732 395.645,202.565 380,172.5C 370.268,139.812 380.435,115.645 410.5,100C 413.98,98.8974 417.313,97.7308 420.5,96.5 Z M 424.5,127.5 C 446.646,126.145 456.812,136.479 455,158.5C 446.552,175.967 433.719,180.134 416.5,171C 406.297,160.69 404.797,149.19 412,136.5C 415.616,132.62 419.783,129.62 424.5,127.5 Z"/></g>
<g><path style="opacity:0.981" fill="#000000" d="M 511.5,296.5 C 511.5,339.167 511.5,381.833 511.5,424.5C 507.906,435.924 500.24,443.091 488.5,446C 455.835,446.5 423.168,446.667 390.5,446.5C 388.872,463.297 379.872,473.797 363.5,478C 291.5,478.667 219.5,478.667 147.5,478C 131.128,473.797 122.128,463.297 120.5,446.5C 87.4983,446.667 54.4983,446.5 21.5,446C 10.7528,442.75 3.41944,435.917 -0.5,425.5C -0.5,382.5 -0.5,339.5 -0.5,296.5C 10.5286,256.366 37.0286,237.7 79,240.5C 112.163,237.079 136.829,249.746 153,278.5C 172.622,257.437 196.789,244.937 225.5,241C 245.5,240.333 265.5,240.333 285.5,241C 314.211,244.937 338.378,257.437 358,278.5C 368.925,258.113 385.759,245.613 408.5,241C 424.167,240.333 439.833,240.333 455.5,241C 486.013,247.68 504.68,266.18 511.5,296.5 Z M 67.5,270.5 C 80.3687,269.776 93.0354,270.942 105.5,274C 121.374,282.071 129.041,295.071 128.5,313C 125.294,323.991 122.794,335.157 121,346.5C 119.714,369.815 119.214,393.148 119.5,416.5C 89.5,416.5 59.5,416.5 29.5,416.5C 29.0557,377.475 29.5557,338.475 31,299.5C 36.9055,281.744 49.0721,272.077 67.5,270.5 Z M 240.5,270.5 C 254.527,270.268 268.527,270.768 282.5,272C 315.317,278.154 338.817,296.321 353,326.5C 355.817,333.616 357.817,340.95 359,348.5C 360.561,380.148 360.894,411.814 360,443.5C 359.691,444.766 359.191,445.933 358.5,447C 324.226,448.157 289.892,448.657 255.5,448.5C 222.167,448.333 188.833,448.167 155.5,448C 154.234,447.691 153.067,447.191 152,446.5C 150.858,431.898 150.358,417.232 150.5,402.5C 150.439,384.48 150.939,366.48 152,348.5C 162.68,300.979 192.18,274.979 240.5,270.5 Z M 420.5,270.5 C 433.369,269.776 446.035,270.942 458.5,274C 472.664,281.164 480.164,292.664 481,308.5C 481.5,344.165 481.667,379.832 481.5,415.5C 451.521,416.461 421.521,416.794 391.5,416.5C 391.786,393.148 391.286,369.815 390,346.5C 388.767,336.568 386.434,326.902 383,317.5C 381.369,290.319 393.869,274.652 420.5,270.5 Z"/></g>
</svg>
