<?xml version="1.0" encoding="UTF-8"?>
<!DOCTYPE svg PUBLIC "-//W3C//DTD SVG 1.1//EN" "http://www.w3.org/Graphics/SVG/1.1/DTD/svg11.dtd">
<svg xmlns="http://www.w3.org/2000/svg" version="1.1" width="512px" height="512px" style="shape-rendering:geometricPrecision; text-rendering:geometricPrecision; image-rendering:optimizeQuality; fill-rule:evenodd; clip-rule:evenodd" xmlns:xlink="http://www.w3.org/1999/xlink">
<g><path style="opacity:0.954" fill="#000000" d="M 242.5,-0.5 C 250.5,-0.5 258.5,-0.5 266.5,-0.5C 287.264,3.42198 301.598,15.2553 309.5,35C 322.833,35.3333 336.167,35.6667 349.5,36C 353.965,36.3128 357.132,38.4794 359,42.5C 359.5,50.4931 359.666,58.4931 359.5,66.5C 377.836,66.3334 396.17,66.5001 414.5,67C 439.554,73.056 453.721,88.8893 457,114.5C 457.667,232.167 457.667,349.833 457,467.5C 455.721,483.567 448.221,495.734 434.5,504C 428.672,507.212 422.672,509.712 416.5,511.5C 309.167,511.5 201.833,511.5 94.5,511.5C 82.1301,508.393 71.6301,502.06 63,492.5C 57.6205,485.029 54.6205,476.695 54,467.5C 53.3333,349.833 53.3333,232.167 54,114.5C 57.279,88.8893 71.4457,73.056 96.5,67C 114.83,66.5001 133.164,66.3334 151.5,66.5C 151.334,58.4931 151.5,50.4931 152,42.5C 153.868,38.4794 157.035,36.3128 161.5,36C 174.513,35.8327 187.513,35.3327 200.5,34.5C 208.516,15.4713 222.516,3.80468 242.5,-0.5 Z M 250.5,22.5 C 271.817,22.9141 284.65,33.5807 289,54.5C 290.873,56.7089 293.04,58.5422 295.5,60C 308.496,60.4999 321.496,60.6666 334.5,60.5C 334.5,76.5 334.5,92.5 334.5,108.5C 281.833,108.5 229.167,108.5 176.5,108.5C 176.5,92.5 176.5,76.5 176.5,60.5C 188.838,60.6665 201.171,60.4999 213.5,60C 214.833,59.3333 216.167,58.6667 217.5,58C 220.997,50.8508 224.497,43.6842 228,36.5C 234.08,29.3852 241.58,24.7185 250.5,22.5 Z M 100.5,91.5 C 117.5,91.5 134.5,91.5 151.5,91.5C 151.333,102.838 151.5,114.172 152,125.5C 153.167,129.333 155.667,131.833 159.5,133C 191.274,134.156 223.107,134.656 255,134.5C 287.213,134.652 319.379,134.152 351.5,133C 355.085,131.084 357.585,128.251 359,124.5C 359.5,113.505 359.667,102.505 359.5,91.5C 376.503,91.3334 393.503,91.5001 410.5,92C 421.342,94.8421 428.175,101.675 431,112.5C 431.667,231.833 431.667,351.167 431,470.5C 427.113,478.871 420.613,484.037 411.5,486C 307.5,486.667 203.5,486.667 99.5,486C 90.3866,484.037 83.8866,478.871 80,470.5C 79.3333,350.833 79.3333,231.167 80,111.5C 83.4444,101.221 90.2777,94.554 100.5,91.5 Z"/></g>
<g><path style="opacity:0.943" fill="#000000" d="M 194.5,170.5 C 208.872,169.362 214.372,175.696 211,189.5C 197.831,203.002 184.331,216.169 170.5,229C 166.12,233.048 161.454,236.715 156.5,240C 152.705,240.837 149.039,240.504 145.5,239C 134.933,229.103 125.1,218.603 116,207.5C 113.658,193.511 119.491,188.011 133.5,191C 139.654,197.321 145.988,203.487 152.5,209.5C 166.546,196.45 180.546,183.45 194.5,170.5 Z"/></g>
<g><path style="opacity:0.965" fill="#000000" d="M 238.5,200.5 C 288.501,200.333 338.501,200.5 388.5,201C 396.224,205.838 398.057,212.338 394,220.5C 392.269,222.617 390.102,224.117 387.5,225C 338.167,225.667 288.833,225.667 239.5,225C 231.33,221.157 228.83,214.991 232,206.5C 234.063,204.266 236.229,202.266 238.5,200.5 Z"/></g>
<g><path style="opacity:0.942" fill="#000000" d="M 196.5,267.5 C 210.094,267.917 214.927,274.584 211,287.5C 193.802,304.366 176.302,320.866 158.5,337C 153.104,339.267 148.104,338.6 143.5,335C 134.333,325.167 125.167,315.333 116,305.5C 113.055,295.382 116.722,289.382 127,287.5C 130.129,287.329 132.963,288.162 135.5,290C 141.376,295.708 147.042,301.541 152.5,307.5C 165.359,295.564 178.025,283.397 190.5,271C 192.432,269.541 194.432,268.375 196.5,267.5 Z"/></g>
<g><path style="opacity:0.934" fill="#000000" d="M 240.5,297.5 C 289.168,297.333 337.834,297.5 386.5,298C 395.752,301.816 398.252,308.316 394,317.5C 391.658,320.754 388.491,322.588 384.5,323C 337.167,323.667 289.833,323.667 242.5,323C 231.296,320.096 228.13,313.263 233,302.5C 235.17,300.177 237.67,298.51 240.5,297.5 Z"/></g>
<g><path style="opacity:0.943" fill="#000000" d="M 194.5,365.5 C 208.872,364.362 214.372,370.696 211,384.5C 193.886,400.945 176.72,417.445 159.5,434C 154.806,435.932 150.139,435.932 145.5,434C 134.933,424.103 125.1,413.603 116,402.5C 113.658,388.511 119.491,383.011 133.5,386C 139.681,392.348 146.014,398.515 152.5,404.5C 166.546,391.45 180.546,378.45 194.5,365.5 Z"/></g>
<g><path style="opacity:0.967" fill="#000000" d="M 238.5,395.5 C 288.501,395.333 338.501,395.5 388.5,396C 396.224,400.838 398.057,407.338 394,415.5C 392.269,417.617 390.102,419.117 387.5,420C 338.167,420.667 288.833,420.667 239.5,420C 231.33,416.157 228.83,409.991 232,401.5C 234.063,399.266 236.229,397.266 238.5,395.5 Z"/></g>
</svg>
