<?xml version="1.0" encoding="UTF-8"?>
<!DOCTYPE svg PUBLIC "-//W3C//DTD SVG 1.1//EN" "http://www.w3.org/Graphics/SVG/1.1/DTD/svg11.dtd">
<svg xmlns="http://www.w3.org/2000/svg" version="1.1" width="512px" height="512px" style="shape-rendering:geometricPrecision; text-rendering:geometricPrecision; image-rendering:optimizeQuality; fill-rule:evenodd; clip-rule:evenodd" xmlns:xlink="http://www.w3.org/1999/xlink">
<g><path style="opacity:0.965" fill="#000000" d="M 245.5,-0.5 C 252.167,-0.5 258.833,-0.5 265.5,-0.5C 273.9,1.70009 281.567,5.53343 288.5,11C 297.453,21.7415 306.286,32.5749 315,43.5C 319.409,48.5251 324.909,50.3585 331.5,49C 346.562,44.234 361.896,40.734 377.5,38.5C 401.289,40.1355 417.123,52.1355 425,74.5C 426.732,90.4576 428.065,106.458 429,122.5C 430.807,128.307 434.64,132.141 440.5,134C 451.167,138 461.833,142 472.5,146C 495.048,157.592 504.548,176.092 501,201.5C 500.202,204.893 499.202,208.226 498,211.5C 490.728,223.768 483.061,235.768 475,247.5C 471.667,252.833 471.667,258.167 475,263.5C 482,274.167 489,284.833 496,295.5C 506.829,320.675 501.995,342.175 481.5,360C 468.207,366.477 454.54,372.144 440.5,377C 434.64,378.859 430.807,382.693 429,388.5C 427.9,402.825 426.9,417.158 426,431.5C 418.539,459.944 400.039,473.444 370.5,472C 357.449,468.872 344.449,465.539 331.5,462C 324.909,460.642 319.409,462.475 315,467.5C 306.286,478.425 297.453,489.258 288.5,500C 281.567,505.467 273.9,509.3 265.5,511.5C 258.833,511.5 252.167,511.5 245.5,511.5C 237.1,509.3 229.433,505.467 222.5,500C 213.547,489.258 204.714,478.425 196,467.5C 191.591,462.475 186.091,460.642 179.5,462C 164.438,466.766 149.104,470.266 133.5,472.5C 109.711,470.864 93.8772,458.864 86,436.5C 84.2685,420.542 82.9351,404.542 82,388.5C 80.1928,382.693 76.3595,378.859 70.5,377C 59.8333,373 49.1667,369 38.5,365C 12.3934,350.254 3.89343,328.42 13,299.5C 20.272,287.232 27.9387,275.232 36,263.5C 39.3333,258.167 39.3333,252.833 36,247.5C 27.9387,235.768 20.272,223.768 13,211.5C 4.61543,187.375 10.1154,167.209 29.5,151C 42.7932,144.523 56.4598,138.856 70.5,134C 76.3595,132.141 80.1928,128.307 82,122.5C 83.0996,108.175 84.0996,93.8419 85,79.5C 92.4614,51.0563 110.961,37.5563 140.5,39C 153.551,42.128 166.551,45.4613 179.5,49C 186.091,50.3585 191.591,48.5251 196,43.5C 204.714,32.5749 213.547,21.7415 222.5,11C 229.433,5.53343 237.1,1.70009 245.5,-0.5 Z M 251.5,33.5 C 256.795,32.7411 261.462,34.0744 265.5,37.5C 274.937,49.7733 284.937,61.6066 295.5,73C 308.022,82.6307 322.022,85.964 337.5,83C 350.844,79.4975 364.177,75.9975 377.5,72.5C 385.159,73.7371 389.992,78.0705 392,85.5C 392.686,100.192 393.686,114.859 395,129.5C 398.315,143.642 406.149,154.475 418.5,162C 432.5,167.667 446.5,173.333 460.5,179C 468.216,185.464 469.383,192.964 464,201.5C 455.916,212.661 448.583,224.328 442,236.5C 437.333,249.167 437.333,261.833 442,274.5C 448.583,286.672 455.916,298.339 464,309.5C 469.383,318.036 468.216,325.536 460.5,332C 446.5,337.667 432.5,343.333 418.5,349C 406.149,356.525 398.315,367.358 395,381.5C 393.686,396.141 392.686,410.808 392,425.5C 389.992,432.93 385.159,437.263 377.5,438.5C 360.979,433.87 344.312,429.87 327.5,426.5C 315.557,426.869 304.891,430.702 295.5,438C 284.937,449.393 274.937,461.227 265.5,473.5C 258.833,478.833 252.167,478.833 245.5,473.5C 236.063,461.227 226.063,449.393 215.5,438C 202.978,428.369 188.978,425.036 173.5,428C 160.156,431.502 146.823,435.002 133.5,438.5C 125.841,437.263 121.008,432.93 119,425.5C 118.314,410.808 117.314,396.141 116,381.5C 112.697,367.394 104.863,356.56 92.5,349C 78.5801,343.138 64.5801,337.471 50.5,332C 42.7839,325.536 41.6172,318.036 47,309.5C 55.0837,298.339 62.417,286.672 69,274.5C 73.6667,261.833 73.6667,249.167 69,236.5C 62.417,224.328 55.0837,212.661 47,201.5C 41.6172,192.964 42.7839,185.464 50.5,179C 64.5801,173.529 78.5801,167.862 92.5,162C 104.851,154.475 112.685,143.642 116,129.5C 117.314,114.859 118.314,100.192 119,85.5C 121.008,78.0705 125.841,73.7371 133.5,72.5C 150.174,77.2261 167.008,81.2261 184,84.5C 195.752,84.0278 206.252,80.1945 215.5,73C 225.731,61.9393 235.397,50.4393 244.5,38.5C 246.724,36.566 249.058,34.8994 251.5,33.5 Z"/></g>
<g><path style="opacity:0.967" fill="#000000" d="M 187.5,164.5 C 214.053,168.573 224.886,183.906 220,210.5C 211.093,229.036 196.593,235.869 176.5,231C 158.727,223.293 151.56,209.793 155,190.5C 160.28,174.789 171.113,166.123 187.5,164.5 Z"/></g>
<g><path style="opacity:0.961" fill="#000000" d="M 326.5,164.5 C 342.003,167.502 347.17,176.502 342,191.5C 288.167,245.333 234.333,299.167 180.5,353C 165.772,358.138 156.772,353.138 153.5,338C 154.213,333.861 155.713,330.028 158,326.5C 210.5,274 263,221.5 315.5,169C 318.86,166.463 322.527,164.963 326.5,164.5 Z"/></g>
<g><path style="opacity:0.962" fill="#000000" d="M 304.5,287.5 C 331.151,286.985 344.318,299.985 344,326.5C 339.158,346.664 326.324,356.164 305.5,355C 284.849,350 275.349,336.833 277,315.5C 280.348,300.32 289.514,290.987 304.5,287.5 Z"/></g>
</svg>
