<?xml version="1.0" encoding="UTF-8"?>
<!DOCTYPE svg PUBLIC "-//W3C//DTD SVG 1.1//EN" "http://www.w3.org/Graphics/SVG/1.1/DTD/svg11.dtd">
<svg xmlns="http://www.w3.org/2000/svg" version="1.1" width="512px" height="512px" style="shape-rendering:geometricPrecision; text-rendering:geometricPrecision; image-rendering:optimizeQuality; fill-rule:evenodd; clip-rule:evenodd" xmlns:xlink="http://www.w3.org/1999/xlink">
<g><path style="opacity:0.966" fill="#000000" d="M 229.5,-0.5 C 246.833,-0.5 264.167,-0.5 281.5,-0.5C 309.112,8.65948 321.779,27.9928 319.5,57.5C 329.987,60.6083 340.154,64.6083 350,69.5C 355.913,63.5863 362.413,58.4196 369.5,54C 387.24,46.0109 404.24,47.3443 420.5,58C 431.333,68.8333 442.167,79.6667 453,90.5C 465.143,108.969 465.476,127.636 454,146.5C 449.82,151.345 445.653,156.178 441.5,161C 446.392,170.846 450.392,181.013 453.5,191.5C 482.97,189.207 502.303,201.873 511.5,229.5C 511.5,246.833 511.5,264.167 511.5,281.5C 502.303,309.127 482.97,321.793 453.5,319.5C 450.392,329.987 446.392,340.154 441.5,350C 447.414,355.913 452.58,362.413 457,369.5C 464.989,387.24 463.656,404.24 453,420.5C 442.167,431.333 431.333,442.167 420.5,453C 402.038,465.21 383.371,465.543 364.5,454C 359.655,449.82 354.822,445.653 350,441.5C 340.154,446.392 329.987,450.392 319.5,453.5C 321.793,482.97 309.127,502.303 281.5,511.5C 264.167,511.5 246.833,511.5 229.5,511.5C 210.596,506.43 198.43,494.43 193,475.5C 192.452,467.746 191.286,460.246 189.5,453C 179.717,449.858 170.217,446.025 161,441.5C 156.178,445.653 151.345,449.82 146.5,454C 127.629,465.543 108.962,465.21 90.5,453C 79.6667,442.167 68.8333,431.333 58,420.5C 45.8569,402.031 45.5236,383.364 57,364.5C 61.1799,359.655 65.3466,354.822 69.5,350C 64.8157,340.448 60.8157,330.614 57.5,320.5C 28.1106,321.844 8.77723,308.844 -0.5,281.5C -0.5,264.167 -0.5,246.833 -0.5,229.5C 4.56964,210.596 16.5696,198.43 35.5,193C 43.2535,192.452 50.7535,191.286 58,189.5C 61.1417,179.717 64.975,170.217 69.5,161C 63.5863,155.087 58.4196,148.587 54,141.5C 46.0109,123.76 47.3443,106.76 58,90.5C 68.8333,79.6667 79.6667,68.8333 90.5,58C 108.969,45.8569 127.636,45.5236 146.5,57C 151.345,61.1799 156.178,65.3466 161,69.5C 170.552,64.8157 180.386,60.8157 190.5,57.5C 189.894,42.5007 193.727,28.834 202,16.5C 209.582,8.13255 218.749,2.46589 229.5,-0.5 Z M 239.5,29.5 C 250.172,29.3335 260.839,29.5002 271.5,30C 280.757,30.592 286.257,35.4253 288,44.5C 288.333,54.1667 288.667,63.8333 289,73.5C 290.105,78.2062 292.938,81.3729 297.5,83C 315.107,87.805 331.774,94.805 347.5,104C 352.257,104.81 356.924,104.476 361.5,103C 368.9,94.9295 376.9,87.5962 385.5,81C 391.106,79.0622 396.439,79.7289 401.5,83C 410.333,91.8333 419.167,100.667 428,109.5C 432.876,117.333 432.209,124.666 426,131.5C 420,137.5 414,143.5 408,149.5C 406.524,154.076 406.19,158.743 407,163.5C 416.804,180.577 424.471,198.577 430,217.5C 432.258,219.43 434.758,220.93 437.5,222C 448.558,222.093 459.558,222.76 470.5,224C 476.85,227.189 480.35,232.356 481,239.5C 481.667,250.167 481.667,260.833 481,271.5C 480.408,280.757 475.575,286.257 466.5,288C 456.833,288.333 447.167,288.667 437.5,289C 432.794,290.105 429.627,292.938 428,297.5C 423.195,315.107 416.195,331.774 407,347.5C 406.19,352.257 406.524,356.924 408,361.5C 416.07,368.9 423.404,376.9 430,385.5C 431.938,391.106 431.271,396.439 428,401.5C 419.167,410.333 410.333,419.167 401.5,428C 393.667,432.876 386.334,432.209 379.5,426C 373.5,420 367.5,414 361.5,408C 356.924,406.524 352.257,406.19 347.5,407C 330.423,416.804 312.423,424.471 293.5,430C 291.57,432.258 290.07,434.758 289,437.5C 288.907,448.558 288.24,459.558 287,470.5C 283.811,476.85 278.644,480.35 271.5,481C 260.833,481.667 250.167,481.667 239.5,481C 230.243,480.408 224.743,475.575 223,466.5C 222.667,456.833 222.333,447.167 222,437.5C 220.895,432.794 218.062,429.627 213.5,428C 195.893,423.195 179.226,416.195 163.5,407C 158.743,406.19 154.076,406.524 149.5,408C 142.1,416.07 134.1,423.404 125.5,430C 119.894,431.938 114.561,431.271 109.5,428C 100.667,419.167 91.8333,410.333 83,401.5C 78.1243,393.667 78.791,386.334 85,379.5C 91,373.5 97,367.5 103,361.5C 104.476,356.924 104.81,352.257 104,347.5C 94.1956,330.423 86.529,312.423 81,293.5C 78.7417,291.57 76.2417,290.07 73.5,289C 62.4424,288.907 51.4424,288.24 40.5,287C 34.1504,283.811 30.6504,278.644 30,271.5C 29.3333,260.833 29.3333,250.167 30,239.5C 30.592,230.243 35.4253,224.743 44.5,223C 54.1667,222.667 63.8333,222.333 73.5,222C 78.2062,220.895 81.3729,218.062 83,213.5C 87.805,195.893 94.805,179.226 104,163.5C 104.81,158.743 104.476,154.076 103,149.5C 94.9295,142.1 87.5962,134.1 81,125.5C 79.0622,119.894 79.7289,114.561 83,109.5C 91.8333,100.667 100.667,91.8333 109.5,83C 115.312,78.8345 121.312,78.5012 127.5,82C 135.136,88.6352 142.47,95.6352 149.5,103C 154.076,104.476 158.743,104.81 163.5,104C 180.577,94.1956 198.577,86.529 217.5,81C 219.43,78.7417 220.93,76.2417 222,73.5C 222.093,62.4424 222.76,51.4424 224,40.5C 227.406,34.2249 232.572,30.5582 239.5,29.5 Z M 247.5,174.5 C 289.761,173.86 318.261,193.193 333,232.5C 341.945,274.426 328.112,306.259 291.5,328C 252.307,343.992 218.807,336.159 191,304.5C 169,271.833 169,239.167 191,206.5C 205.832,188.67 224.665,178.003 247.5,174.5 Z"/></g>
<g><path style="opacity:0.962" fill="#000000" d="M 246.5,143.5 C 306.204,143.069 345.371,171.069 364,227.5C 374.087,276.457 359.587,316.29 320.5,347C 279.998,372.731 238.665,374.064 196.5,351C 150.741,318.608 134.908,275.108 149,220.5C 166.097,175.228 198.597,149.561 246.5,143.5 Z M 247.5,174.5 C 224.665,178.003 205.832,188.67 191,206.5C 169,239.167 169,271.833 191,304.5C 218.807,336.159 252.307,343.992 291.5,328C 328.112,306.259 341.945,274.426 333,232.5C 318.261,193.193 289.761,173.86 247.5,174.5 Z"/></g>
</svg>
